<svg width="49" height="50" viewBox="0 0 49 50" fill="none" xmlns="http://www.w3.org/2000/svg">
<g clip-path="url(#clip0_41_24587)">
<rect x="0.107422" y="0.57666" width="48.7502" height="48.7502" rx="9.75005" fill="white"/>
<rect x="22.6543" y="12.7644" width="3.65627" height="24.3751" rx="1.82813" fill="url(#paint0_linear_41_24587)"/>
<rect x="31.7954" y="34.0925" width="3.65627" height="18.2813" rx="1.82813" transform="rotate(-180 31.7954 34.0925)" fill="url(#paint1_linear_41_24587)"/>
<rect x="20.8267" y="34.0925" width="3.65627" height="18.2813" rx="1.82813" transform="rotate(-180 20.8267 34.0925)" fill="url(#paint2_linear_41_24587)"/>
<rect x="11.6855" y="18.8584" width="3.65627" height="12.1876" rx="1.82813" fill="url(#paint3_linear_41_24587)"/>
<rect x="33.6235" y="18.8584" width="3.65627" height="12.1876" rx="1.82813" fill="url(#paint4_linear_41_24587)"/>
</g>
<defs>
<linearGradient id="paint0_linear_41_24587" x1="24.4824" y1="14.0441" x2="24.4824" y2="37.1395" gradientUnits="userSpaceOnUse">
<stop stop-color="#FF9933"/>
<stop offset="1" stop-color="#FF9933" stop-opacity="0.15"/>
</linearGradient>
<linearGradient id="paint1_linear_41_24587" x1="33.6235" y1="35.0523" x2="33.6235" y2="52.3739" gradientUnits="userSpaceOnUse">
<stop stop-color="#FF9933"/>
<stop offset="1" stop-color="#FF9933" stop-opacity="0.15"/>
</linearGradient>
<linearGradient id="paint2_linear_41_24587" x1="22.6548" y1="35.0523" x2="22.6548" y2="52.3739" gradientUnits="userSpaceOnUse">
<stop stop-color="#FF9933"/>
<stop offset="1" stop-color="#FF9933" stop-opacity="0.15"/>
</linearGradient>
<linearGradient id="paint3_linear_41_24587" x1="13.5137" y1="19.4982" x2="13.5137" y2="31.046" gradientUnits="userSpaceOnUse">
<stop stop-color="#FF9933"/>
<stop offset="1" stop-color="#FF9933" stop-opacity="0.15"/>
</linearGradient>
<linearGradient id="paint4_linear_41_24587" x1="35.4517" y1="19.4982" x2="35.4517" y2="31.046" gradientUnits="userSpaceOnUse">
<stop stop-color="#FF9933"/>
<stop offset="1" stop-color="#FF9933" stop-opacity="0.15"/>
</linearGradient>
<clipPath id="clip0_41_24587">
<rect width="48.9796" height="48.9796" fill="white" transform="translate(0 0.469482)"/>
</clipPath>
</defs>
</svg>
