<svg width="60" height="60" viewBox="0 0 60 60" fill="none" xmlns="http://www.w3.org/2000/svg">
<rect width="60" height="60" rx="12" fill="#FF9933"/>
<rect x="27.75" y="15" width="4.5" height="30" rx="2.25" fill="url(#paint0_linear_853_2009)"/>
<rect x="39" y="41.25" width="4.5" height="22.5" rx="2.25" transform="rotate(-180 39 41.25)" fill="url(#paint1_linear_853_2009)"/>
<rect x="25.5" y="41.25" width="4.5" height="22.5" rx="2.25" transform="rotate(-180 25.5 41.25)" fill="url(#paint2_linear_853_2009)"/>
<rect x="14.25" y="22.5" width="4.5" height="15" rx="2.25" fill="url(#paint3_linear_853_2009)"/>
<rect x="41.25" y="22.5" width="4.5" height="15" rx="2.25" fill="url(#paint4_linear_853_2009)"/>
<rect x="27.75" y="15" width="4.5" height="30" rx="2.25" fill="url(#paint5_linear_853_2009)"/>
<rect x="39" y="41.25" width="4.5" height="22.5" rx="2.25" transform="rotate(-180 39 41.25)" fill="url(#paint6_linear_853_2009)"/>
<rect x="25.5" y="41.25" width="4.5" height="22.5" rx="2.25" transform="rotate(-180 25.5 41.25)" fill="url(#paint7_linear_853_2009)"/>
<rect x="14.25" y="22.5" width="4.5" height="15" rx="2.25" fill="url(#paint8_linear_853_2009)"/>
<rect x="41.25" y="22.5" width="4.5" height="15" rx="2.25" fill="url(#paint9_linear_853_2009)"/>
<defs>
<linearGradient id="paint0_linear_853_2009" x1="30" y1="16.575" x2="30" y2="45" gradientUnits="userSpaceOnUse">
<stop stop-color="white"/>
<stop offset="1" stop-color="white"/>
</linearGradient>
<linearGradient id="paint1_linear_853_2009" x1="41.25" y1="42.4312" x2="41.25" y2="63.75" gradientUnits="userSpaceOnUse">
<stop stop-color="white"/>
<stop offset="1" stop-color="white"/>
</linearGradient>
<linearGradient id="paint2_linear_853_2009" x1="27.75" y1="42.4312" x2="27.75" y2="63.75" gradientUnits="userSpaceOnUse">
<stop stop-color="white"/>
<stop offset="1" stop-color="white"/>
</linearGradient>
<linearGradient id="paint3_linear_853_2009" x1="16.5" y1="23.2875" x2="16.5" y2="37.5" gradientUnits="userSpaceOnUse">
<stop stop-color="white"/>
<stop offset="1" stop-color="white"/>
</linearGradient>
<linearGradient id="paint4_linear_853_2009" x1="43.5" y1="23.2875" x2="43.5" y2="37.5" gradientUnits="userSpaceOnUse">
<stop stop-color="white"/>
<stop offset="1" stop-color="white"/>
</linearGradient>
<linearGradient id="paint5_linear_853_2009" x1="30" y1="16.575" x2="30" y2="45" gradientUnits="userSpaceOnUse">
<stop stop-color="#FF9933" stop-opacity="0.8"/>
<stop offset="1" stop-color="white"/>
</linearGradient>
<linearGradient id="paint6_linear_853_2009" x1="41.25" y1="42.4312" x2="41.25" y2="63.75" gradientUnits="userSpaceOnUse">
<stop stop-color="#FF9933" stop-opacity="0.8"/>
<stop offset="1" stop-color="white"/>
</linearGradient>
<linearGradient id="paint7_linear_853_2009" x1="27.75" y1="42.4312" x2="27.75" y2="63.75" gradientUnits="userSpaceOnUse">
<stop stop-color="#FF9933" stop-opacity="0.8"/>
<stop offset="1" stop-color="white"/>
</linearGradient>
<linearGradient id="paint8_linear_853_2009" x1="16.5" y1="23.2875" x2="16.5" y2="37.5" gradientUnits="userSpaceOnUse">
<stop stop-color="#FF9933" stop-opacity="0.8"/>
<stop offset="1" stop-color="white"/>
</linearGradient>
<linearGradient id="paint9_linear_853_2009" x1="43.5" y1="23.2875" x2="43.5" y2="37.5" gradientUnits="userSpaceOnUse">
<stop stop-color="#FF9933" stop-opacity="0.8"/>
<stop offset="1" stop-color="white"/>
</linearGradient>
</defs>
</svg>
