<svg width="1512" height="521" viewBox="0 0 1512 521" fill="none" xmlns="http://www.w3.org/2000/svg">
<path fill-rule="evenodd" clip-rule="evenodd" d="M737.671 1065.89C638.54 1127.37 539.392 1169.83 472.908 1190.21C-112.392 1438.15 -107.559 1092.11 -103.23 782.154C-102.863 755.882 -102.5 729.87 -102.5 704.5C-133.363 414.969 170.276 0 494.954 0C649.757 0 790.586 59.8341 895.574 157.637C953.816 127.492 1017.24 110.228 1083.6 110.228C1367.7 110.228 1774.5 426.622 1774.5 715.516C1774.5 1004.41 1367.7 1171.35 1083.6 1171.35C950.405 1171.35 829.029 1134.65 737.671 1065.89Z" fill="url(#paint0_linear_624_3822)"/>
<defs>
<linearGradient id="paint0_linear_624_3822" x1="226.176" y1="75.6445" x2="993.352" y2="1579.66" gradientUnits="userSpaceOnUse">
<stop stop-color="#FF9933"/>
<stop offset="1" stop-color="#FFA74F" stop-opacity="0.21"/>
</linearGradient>
</defs>
</svg>
