<svg width="617" height="419" viewBox="0 0 617 419" fill="none" xmlns="http://www.w3.org/2000/svg">
<path fill-rule="evenodd" clip-rule="evenodd" d="M276.571 349.971C244.022 370.159 211.468 384.1 189.639 390.789C-2.53618 472.197 -0.94939 358.579 0.471926 256.81C0.592398 248.184 0.711681 239.643 0.711681 231.313C-9.42184 136.25 90.2742 0 196.878 0C247.705 0 293.945 19.6458 328.416 51.7581C347.539 41.8603 368.365 36.1918 390.154 36.1918C483.432 36.1918 617 140.076 617 234.93C617 329.785 483.432 384.598 390.154 384.598C346.419 384.598 306.567 372.548 276.571 349.971Z" fill="url(#paint0_linear_41_20892)"/>
<defs>
<linearGradient id="paint0_linear_41_20892" x1="108.628" y1="24.8369" x2="360.52" y2="518.66" gradientUnits="userSpaceOnUse">
<stop stop-color="#FF9933"/>
<stop offset="1" stop-color="#FFA74F" stop-opacity="0.21"/>
</linearGradient>
</defs>
</svg>
